<?xml version="1.0" encoding="utf-8"?>
<!-- Generator: Adobe Illustrator 16.0.3, SVG Export Plug-In . SVG Version: 6.00 Build 0)  -->
<!DOCTYPE svg PUBLIC "-//W3C//DTD SVG 1.1//EN" "http://www.w3.org/Graphics/SVG/1.1/DTD/svg11.dtd">
<svg version="1.1" id="Layer_1" xmlns="http://www.w3.org/2000/svg" xmlns:xlink="http://www.w3.org/1999/xlink" x="0px" y="0px"
	 width="151.964px" height="94.373px" viewBox="0 0 151.964 94.373" enable-background="new 0 0 151.964 94.373"
	 xml:space="preserve">
<path fill-rule="evenodd" clip-rule="evenodd" fill="#FFFFFF" d="M60.259,44.48c2.568,0.559,5.447,1.019,8.228,1.819
	c10.491,3.021,16.427,9.834,17.225,19.572c0.919,11.219-3.976,20.392-14.004,24.668c-4.512,1.926-9.563,3.438-14.413,3.567
	C40.686,94.552,24.06,94.3,7.439,94.315c-0.322-0.446-0.643-0.894-0.963-1.341c1.056-0.916,2.01-2.452,3.187-2.648
	c7.708-1.284,8.674-2.161,8.667-9.888c-0.021-21.635-0.096-43.269-0.208-64.903c-0.034-6.529-1.439-7.84-8.101-8.963
	C8.804,6.367,7.797,4.911,6.693,4.033c1.232-0.732,2.464-2.101,3.696-2.1C24.53,1.938,38.687,1.819,52.804,2.48
	c5.346,0.25,10.983,1.614,15.823,3.888c12.204,5.732,14.11,22.186,3.735,30.774C68.753,40.128,64.291,42.081,60.259,44.48z
	 M35.521,46.792c-0.058,12.871-0.373,23.99,0.057,35.079c0.092,2.382,2.378,5.884,4.522,6.773
	c9.417,3.902,20.794-1.577,24.654-11.215c4.292-10.717,0.526-23.299-9.063-26.886C49.667,48.291,42.879,48.079,35.521,46.792z
	 M36.037,7.661c-0.119,12.051-0.232,23.295-0.347,34.843c8.883,0.037,17.715,1.184,22.804-7.494
	c4.101-6.99,3.78-14.765-0.671-21.363C52.649,5.979,44.179,7.675,36.037,7.661z"/>
<path fill-rule="evenodd" clip-rule="evenodd" fill="#FFFFFF" d="M107.618,44.194c5.933-1.866,11.575-4.679,17.44-5.268
	c11.809-1.185,20.719,4.333,24.728,13.807c4.544,10.739,1.808,24.726-6.623,32.289c-11.81,10.597-25.43,11.364-39.716,6.397
	c-2.872-1-4.843-1.242-7.128,0.826c-0.836,0.757-2.29,0.829-3.462,1.215c-0.314-1.054-0.912-2.108-0.901-3.156
	c0.228-22.639,0.381-45.283,0.927-67.917c0.108-4.528-0.356-7.788-5.197-9.152c-0.808-0.227-1.413-1.18-2.865-2.465
	c7.81-3.021,14.896-5.763,22.979-8.89C107.735,16.715,107.676,30.709,107.618,44.194z M135.727,72.757
	c-0.034-1.509,0.117-4.19-0.187-6.819c-1.558-13.436-12.15-20.88-23.759-16.86c-2.954,1.022-4.604,2.504-4.481,6.07
	c0.246,7.143,0.271,14.323-0.186,21.451c-0.347,5.414,2.175,8.334,6.686,10.354C124.68,91.827,134.151,86.18,135.727,72.757z"/>
</svg>
