<?xml version="1.0" encoding="utf-8"?>
<!-- Generator: Adobe Illustrator 16.0.3, SVG Export Plug-In . SVG Version: 6.00 Build 0)  -->
<!DOCTYPE svg PUBLIC "-//W3C//DTD SVG 1.1//EN" "http://www.w3.org/Graphics/SVG/1.1/DTD/svg11.dtd">
<svg version="1.1" id="Layer_1" xmlns="http://www.w3.org/2000/svg" xmlns:xlink="http://www.w3.org/1999/xlink" x="0px" y="0px"
	 width="95px" height="95px" viewBox="0 0 95 95" enable-background="new 0 0 95 95" xml:space="preserve">
<rect y="0" display="none" width="95" height="95"/>
<polygon fill="#FFFFFF" points="47.129,71.91 11.524,71.91 29.327,37.308 47.129,2.707 "/>
<rect x="44.586" y="58.517" fill="#FFFFFF" width="2.542" height="16.864"/>
<path fill="#FFFFFF" d="M79.975,77.446L46.054,70.94c0,0,6.385-5.768,7.115-25.727c0.362-9.917-4.546-27.292-4.546-27.292
	l16.476,31.282L79.975,77.446z"/>
<path fill="#FFFFFF" d="M87.687,90.516H3.151l-2.53-9.147h20.868l2.288-4.94l35.004,0.2l7.134,3.058c0,0,25.758-3.914,27.96-2.239
	c0,0,0.639,2.122-0.969,6.345C90.997,88.808,87.687,90.516,87.687,90.516z"/>
</svg>
