<?xml version="1.0" encoding="utf-8"?>
<!-- Generator: Adobe Illustrator 16.0.3, SVG Export Plug-In . SVG Version: 6.00 Build 0)  -->
<!DOCTYPE svg PUBLIC "-//W3C//DTD SVG 1.1//EN" "http://www.w3.org/Graphics/SVG/1.1/DTD/svg11.dtd">
<svg version="1.1" id="Layer_1" xmlns="http://www.w3.org/2000/svg" xmlns:xlink="http://www.w3.org/1999/xlink" x="0px" y="0px"
	 width="179px" height="370.5px" viewBox="0 0 179 370.5" enable-background="new 0 0 179 370.5" xml:space="preserve">
<path fill="#FDFDFE" d="M158.449,128.514c10.666-17.667,18.208-19.855,14.874-52.522c0,0-7.916-45.673-19.241-57.867
	c-4.48-4.824-9.127-11.099-19.963-11.09v0c-10.834-0.009-16.48,6.266-20.961,11.09c-11.324,12.194-18.241,57.867-18.241,57.867
	c-3.333,32.667,4.207,34.856,14.874,52.522c0,0,12.371,13.885,13.787,25.64c7.239,60.117-5.696,198.234-5.696,198.234
	c0,6.627,5.372,12,12,12h1c0.997,0,1.96-0.137,2.886-0.367c0.115,0.027,0.235,0.043,0.352,0.066
	c0.117-0.023,0.238-0.039,0.353-0.066c0.926,0.23,1.889,0.367,2.886,0.367h1c6.627,0,12-5.373,12-12
	c0,0-12.936-138.117-5.695-198.235C146.076,142.399,158.449,128.514,158.449,128.514z"/>
<path fill="#FFFFFF" d="M64.087,130.528c10.667-17.667,6.165-44.233,6.165-50.86l-4.533-59.529c0-5.524-0.763-9.374-5.787-10.636
	l-0.994,80.665c-0.727,2.034-2.156,3.532-3.5,3.5c-1.064-0.025-1.493-0.814-2.5-3.5l-1-82.145l-5.5-1l-1,82.645
	c-0.062,3.333-3.5,5.5-3.5,5.5s-3.438-2.167-3.5-5.5l-1-82.645l-5.5,1l-1,82.145c-1.007,2.686-1.436,3.475-2.5,3.5
	c-1.344,0.032-2.773-1.466-3.5-3.5L23.944,9.503c-5.024,1.262-5.787,5.112-5.787,10.636l-4.533,59.529
	c0,6.627-4.501,33.194,6.165,50.86c0,0,10.372,11.885,11.788,23.64c7.239,60.117-7.696,198.234-7.696,198.234
	c0,6.627,5.373,12,12,12h1c0.997,0,1.959-0.137,2.885-0.367c0.383,0.096,0.776,0.162,1.172,0.223c0.337-0.052,0.671-0.115,1-0.19
	c0.329,0.075,0.663,0.139,1,0.19c0.396-0.061,0.789-0.127,1.172-0.223c0.926,0.23,1.888,0.367,2.885,0.367h1c6.627,0,12-5.373,12-12
	c0,0-14.936-138.117-7.696-198.234C53.715,142.413,64.087,130.528,64.087,130.528z"/>
</svg>
