<?xml version="1.0" encoding="utf-8"?>
<!-- Generator: Adobe Illustrator 16.0.3, SVG Export Plug-In . SVG Version: 6.00 Build 0)  -->
<!DOCTYPE svg PUBLIC "-//W3C//DTD SVG 1.1//EN" "http://www.w3.org/Graphics/SVG/1.1/DTD/svg11.dtd">
<svg version="1.1" id="Layer_1" xmlns="http://www.w3.org/2000/svg" xmlns:xlink="http://www.w3.org/1999/xlink" x="0px" y="0px"
	 width="161.439px" height="178.69px" viewBox="12.681 7.023 161.439 178.69" enable-background="new 12.681 7.023 161.439 178.69"
	 xml:space="preserve">
<path fill="#FDFDFE" d="M123.578,154.154c1.07,8.89,1.697,19.494,1.992,31.096h17.101c0.296-11.603,0.923-22.207,1.993-31.097
	c1.412-11.754,13.785-25.639,13.785-25.639c10.666-17.667,18.208-19.855,14.874-52.522c0,0-7.916-45.673-19.241-57.867
	c-4.48-4.824-9.127-11.099-19.963-11.09c-10.834-0.009-16.48,6.266-20.961,11.09c-11.324,12.194-18.241,57.867-18.241,57.867
	c-3.333,32.667,4.207,34.856,14.874,52.522C109.791,128.514,122.162,142.399,123.578,154.154z"/>
<path fill="#FFFFFF" d="M31.577,154.168c1.084,9.004,1.668,19.767,1.882,31.545h16.958c0.214-11.778,0.798-22.541,1.882-31.545
	c1.416-11.755,11.788-23.64,11.788-23.64c10.667-17.667,6.165-44.233,6.165-50.86l-4.533-59.529c0-5.524-0.763-9.374-5.787-10.636
	l-0.994,80.665c-0.727,2.034-2.156,3.532-3.5,3.5c-1.064-0.025-1.493-0.814-2.5-3.5l-1-82.145l-5.5-1l-1,82.645
	c-0.062,3.333-3.5,5.5-3.5,5.5s-3.438-2.167-3.5-5.5l-1-82.645l-5.5,1l-1,82.145c-1.007,2.686-1.436,3.475-2.5,3.5
	c-1.344,0.032-2.773-1.466-3.5-3.5L23.944,9.503c-5.024,1.262-5.787,5.112-5.787,10.636l-4.533,59.529
	c0,6.627-4.501,33.194,6.165,50.86C19.789,130.528,30.161,142.413,31.577,154.168z"/>
</svg>
