<?xml version="1.0" encoding="utf-8"?>
<!-- Generator: Adobe Illustrator 16.0.3, SVG Export Plug-In . SVG Version: 6.00 Build 0)  -->
<!DOCTYPE svg PUBLIC "-//W3C//DTD SVG 1.1//EN" "http://www.w3.org/Graphics/SVG/1.1/DTD/svg11.dtd">
<svg version="1.1" id="Layer_1" xmlns="http://www.w3.org/2000/svg" xmlns:xlink="http://www.w3.org/1999/xlink" x="0px" y="0px"
	 width="600px" height="800px" viewBox="0 0 600 800" enable-background="new 0 0 600 800" xml:space="preserve">
<polygon fill="#7E7E7E" points="596.06,795 4.236,795 4.236,7 491.43,7 596.06,114.302 "/>
<polyline fill="#FFFFFF" points="442.684,38.915 442.684,148.706 556.771,148.706 "/>
<polygon fill="#FFFFFF" points="405.463,179.513 405.59,40.003 41.47,40.003 41.47,759.996 316.213,759.996 414.325,759.996 
	558.825,759.996 558.825,179.471 "/>
<rect x="94.07" y="86.236" fill="#A82622" width="257.028" height="97.494"/>
<rect x="308.631" y="231.686" fill="#A7A7A7" width="198.253" height="47.761"/>
<rect x="308.716" y="334.083" fill="#A7A7A7" width="198.25" height="47.763"/>
<rect x="94.07" y="231.687" fill="#A7A7A7" width="148.43" height="150.159"/>
<rect x="358.453" y="536.687" fill="#A7A7A7" width="148.431" height="150.159"/>
<rect x="97.548" y="536.686" fill="#A7A7A7" width="198.253" height="47.762"/>
<rect x="97.633" y="639.084" fill="#A7A7A7" width="198.25" height="47.762"/>
<rect x="94.07" y="434.447" fill="#A7A7A7" width="412.813" height="47.762"/>
</svg>
