<?xml version="1.0" encoding="utf-8"?>
<!-- Generator: Adobe Illustrator 16.0.3, SVG Export Plug-In . SVG Version: 6.00 Build 0)  -->
<!DOCTYPE svg PUBLIC "-//W3C//DTD SVG 1.1//EN" "http://www.w3.org/Graphics/SVG/1.1/DTD/svg11.dtd">
<svg version="1.1" id="Layer_1" xmlns="http://www.w3.org/2000/svg" xmlns:xlink="http://www.w3.org/1999/xlink" x="0px" y="0px"
	 width="600px" height="800px" viewBox="0 0 600 800" enable-background="new 0 0 600 800" xml:space="preserve">
<polygon fill="#7E7E7E" points="596.06,795 4.236,795 4.236,7 491.43,7 596.06,114.302 "/>
<polyline fill="#FFFFFF" points="442.684,38.915 442.684,148.706 556.771,148.706 "/>
<polygon fill="#FFFFFF" points="405.463,179.513 405.59,40.003 41.47,40.003 41.47,759.996 316.213,759.996 414.325,759.996 
	558.825,759.996 558.825,179.471 "/>
<rect x="94.07" y="86.236" fill="#A82622" width="257.028" height="97.494"/>
<g>
	<path fill="none" stroke="#A92523" stroke-width="40" stroke-linecap="round" stroke-miterlimit="10" d="M257.354,288.725
		c23.221,171.517-26.341,323.514-110.812,339.838"/>
	<path fill="none" stroke="#A92523" stroke-width="40" stroke-linecap="round" stroke-miterlimit="10" d="M258.624,298.103
		c23.222,171.516,110.363,297.097,194.834,280.771"/>
	<path fill="none" stroke="#A92523" stroke-width="40" stroke-linecap="round" stroke-miterlimit="10" d="M436.007,580.257
		c-161.633-46.495-190.885-10.422-286.342,52.048"/>
</g>
</svg>
