<?xml version="1.0" encoding="utf-8"?>
<!-- Generator: Adobe Illustrator 16.0.3, SVG Export Plug-In . SVG Version: 6.00 Build 0)  -->
<!DOCTYPE svg PUBLIC "-//W3C//DTD SVG 1.1//EN" "http://www.w3.org/Graphics/SVG/1.1/DTD/svg11.dtd">
<svg version="1.1" id="Layer_1" xmlns="http://www.w3.org/2000/svg" xmlns:xlink="http://www.w3.org/1999/xlink" x="0px" y="0px"
	 width="1000px" height="800px" viewBox="-200 0 1000 800" enable-background="new -200 0 1000 800" xml:space="preserve">
<polygon fill="#7E7E7E" points="691.01,7 292.01,7 203.816,7 -195.184,7 -195.184,795 203.816,795 396.64,795 795.64,795 
	795.64,114.302 "/>
<polygon fill="#FFFFFF" points="605.043,179.513 605.17,40.003 323.17,40.003 241.05,40.003 208.17,40.003 -40.95,40.003 
	-155.95,40.003 -155.95,759.996 -40.95,759.996 118.793,759.996 216.905,759.996 233.793,759.996 241.05,759.996 331.905,759.996 
	361.405,759.996 476.405,759.996 515.793,759.996 613.905,759.996 758.405,759.996 758.405,179.471 "/>
<polyline fill="#FFFFFF" points="642.264,38.915 642.264,148.706 756.352,148.706 "/>
<rect x="-103.5" y="86.236" fill="#FF9600" width="654.178" height="97.494"/>
<rect x="-103.5" y="241.085" fill="#A7A7A7" width="809.998" height="252.557"/>
<rect x="-103.5" y="548.919" fill="#A7A7A7" width="809.998" height="47.761"/>
<rect x="-103.5" y="647.635" fill="#A7A7A7" width="809.998" height="47.765"/>
</svg>
