<?xml version="1.0" encoding="utf-8"?>
<!-- Generator: Adobe Illustrator 16.0.3, SVG Export Plug-In . SVG Version: 6.00 Build 0)  -->
<!DOCTYPE svg PUBLIC "-//W3C//DTD SVG 1.1//EN" "http://www.w3.org/Graphics/SVG/1.1/DTD/svg11.dtd">
<svg version="1.1" id="Layer_1" xmlns="http://www.w3.org/2000/svg" xmlns:xlink="http://www.w3.org/1999/xlink" x="0px" y="0px"
	 width="600px" height="800px" viewBox="0 0 600 800" enable-background="new 0 0 600 800" xml:space="preserve">
<polygon fill="#7E7E7E" points="596.06,795 4.236,795 4.236,7 491.43,7 596.06,114.302 "/>
<polyline fill="#FFFFFF" points="442.684,38.915 442.684,148.706 556.771,148.706 "/>
<polygon fill="#FFFFFF" points="403.409,183.772 403.536,44.262 39.416,44.262 39.416,764.255 314.159,764.255 412.271,764.255 
	556.771,764.255 556.771,183.73 "/>
<rect x="94.07" y="86.236" fill="#0077BF" width="257.028" height="97.494"/>
<rect x="94.07" y="228.085" fill="#A7A7A7" width="144.403" height="252.557"/>
<rect x="295.631" y="228.085" fill="#A7A7A7" width="198.253" height="47.761"/>
<rect x="295.631" y="432.878" fill="#A7A7A7" width="198.253" height="47.764"/>
<rect x="295.716" y="330.482" fill="#A7A7A7" width="198.25" height="47.763"/>
<rect x="86.696" y="542.913" fill="#A7A7A7" width="47.257" height="47.763"/>
<rect x="86.696" y="640.635" fill="#A7A7A7" width="47.258" height="47.764"/>
<rect x="184.105" y="542.919" fill="#A7A7A7" width="309.779" height="47.761"/>
<rect x="184.105" y="640.635" fill="#A7A7A7" width="309.779" height="47.764"/>
</svg>
