<?xml version="1.0" encoding="utf-8"?>
<!-- Generator: Adobe Illustrator 16.0.3, SVG Export Plug-In . SVG Version: 6.00 Build 0)  -->
<!DOCTYPE svg PUBLIC "-//W3C//DTD SVG 1.1//EN" "http://www.w3.org/Graphics/SVG/1.1/DTD/svg11.dtd">
<svg version="1.1" id="Layer_1" xmlns="http://www.w3.org/2000/svg" xmlns:xlink="http://www.w3.org/1999/xlink" x="0px" y="0px"
	 width="600px" height="800px" viewBox="0 0 600 800" enable-background="new 0 0 600 800" xml:space="preserve">
<polygon fill-rule="evenodd" clip-rule="evenodd" fill="#7E7E7E" points="596.06,795 4.236,795 4.236,7 491.43,7 596.06,114.302 "/>
<polyline fill-rule="evenodd" clip-rule="evenodd" fill="#FFFFFF" points="442.684,38.915 442.684,148.706 556.771,148.706 "/>
<polygon fill-rule="evenodd" clip-rule="evenodd" fill="#FFFFFF" points="403.409,183.772 403.536,44.262 39.416,44.262 
	39.416,764.255 314.159,764.255 412.271,764.255 556.771,764.255 556.771,183.73 "/>
<rect x="91.07" y="121" fill-rule="evenodd" clip-rule="evenodd" fill="#7E7E7E" width="257.028" height="48.352"/>
<rect x="351.099" y="228.085" fill-rule="evenodd" clip-rule="evenodd" fill="#A7A7A7" width="142.785" height="47.761"/>
<rect x="322" y="432.878" fill-rule="evenodd" clip-rule="evenodd" fill="#CCCCCC" width="171.884" height="47.764"/>
<rect x="256.014" y="330.482" fill-rule="evenodd" clip-rule="evenodd" fill="#A7A7A7" width="237.953" height="47.763"/>
<rect x="97.021" y="539.708" fill-rule="evenodd" clip-rule="evenodd" fill="#CCCCCC" width="100.759" height="47.763"/>
<rect x="94.07" y="228.085" fill-rule="evenodd" clip-rule="evenodd" fill="#A7A7A7" width="207.421" height="47.761"/>
<rect x="94.07" y="330.483" fill-rule="evenodd" clip-rule="evenodd" fill="#A7A7A7" width="103.71" height="47.761"/>
<rect x="94.07" y="432.878" fill-rule="evenodd" clip-rule="evenodd" fill="#CCCCCC" width="169.93" height="47.764"/>
<rect x="442.684" y="539.708" fill-rule="evenodd" clip-rule="evenodd" fill="#CCCCCC" width="47.258" height="47.763"/>
<rect x="256.014" y="539.708" fill-rule="evenodd" clip-rule="evenodd" fill="#CCCCCC" width="131.973" height="47.763"/>
</svg>
