<?xml version="1.0" encoding="utf-8"?>
<!-- Generator: Adobe Illustrator 16.0.3, SVG Export Plug-In . SVG Version: 6.00 Build 0)  -->
<!DOCTYPE svg PUBLIC "-//W3C//DTD SVG 1.1//EN" "http://www.w3.org/Graphics/SVG/1.1/DTD/svg11.dtd">
<svg version="1.1" id="Layer_1" xmlns="http://www.w3.org/2000/svg" xmlns:xlink="http://www.w3.org/1999/xlink" x="0px" y="0px"
	 width="600px" height="800px" viewBox="0 0 600 800" enable-background="new 0 0 600 800" xml:space="preserve">
<polygon fill="#7E7E7E" points="596.06,795 4.236,795 4.236,7 491.43,7 596.06,114.302 "/>
<polyline fill="#FFFFFF" points="442.684,38.915 442.684,148.706 556.771,148.706 "/>
<polygon fill="#FFFFFF" points="403.409,183.772 403.536,44.262 39.416,44.262 39.416,764.255 314.159,764.255 412.271,764.255 
	556.771,764.255 556.771,183.73 "/>
<rect x="94.07" y="86.236" fill="#A82622" width="257.028" height="97.494"/>
<g>
	<path fill="#A82622" d="M509.859,532.082c4.876,11.791,1.664,20.023-9.633,24.694c-7.935,3.28-19.708-0.517-35.319-11.393
		c-11.506-8.065-31.877-25.144-61.119-51.238c-46.279,18.289-102.703,29.078-169.275,32.366
		c-26.262,67.361-47.76,104.497-64.486,111.412c-4.332,1.791-8.783,1.766-13.352-0.08c-4.565-1.844-7.771-4.994-9.611-9.447
		c-2.039-4.933-0.363-12.213,5.025-21.838c5.393-9.627,10.763-19.208,16.117-28.75c9.119-16.451,17.204-33.531,24.255-51.24
		c-24.081,0.375-37.911-3.771-41.493-12.434c-2.039-4.933-2.168-9.846-0.388-14.74c1.782-4.891,4.956-8.284,9.53-10.176
		c3.729-1.541,9.9-2.124,18.508-1.753c15.134,0.485,24.102,0.708,26.908,0.671c22.187-83.666,30.244-141.367,24.174-173.096
		c-2.444-10.683-4.854-21.453-7.228-32.307c-0.679-8.455,3.433-14.522,12.34-18.206c7.337-3.034,13.542-2.006,18.606,3.086
		c2.937,3.013,6.4,7.994,10.4,14.932c4.814,8.577,8.445,14.473,10.904,17.684c30.665,41.796,76.984,91.122,138.957,147.979
		c5.483-2.406,10.716-4.922,15.691-7.545l6.995-3.525c13.356-5.522,22.535-2.237,27.532,9.851
		c5.151,12.459,0.805,21.548-13.031,27.269l-5.234,2.164c8.674,7.688,22.891,19.068,42.65,34.146
		C500.678,520.098,507.869,527.268,509.859,532.082z M371.902,465.06c-36.704-33.914-71.838-71.363-105.401-112.344
		c-1.289,45.986-7.989,90.828-20.095,134.529C289.491,485.44,331.322,478.046,371.902,465.06z"/>
</g>
</svg>
