<?xml version="1.0" encoding="utf-8"?>
<!-- Generator: Adobe Illustrator 16.0.3, SVG Export Plug-In . SVG Version: 6.00 Build 0)  -->
<!DOCTYPE svg PUBLIC "-//W3C//DTD SVG 1.1//EN" "http://www.w3.org/Graphics/SVG/1.1/DTD/svg11.dtd">
<svg version="1.1" id="Layer_1" xmlns="http://www.w3.org/2000/svg" xmlns:xlink="http://www.w3.org/1999/xlink" x="0px" y="0px"
	 width="76.264px" height="94.641px" viewBox="0 0 76.264 94.641" enable-background="new 0 0 76.264 94.641" xml:space="preserve">
<rect x="-8.042" y="-0.265" display="none" width="95" height="95"/>
<polygon fill="#FFFFFF" points="68.808,15.247 62.802,11.096 36.017,94.641 45.773,87.098 "/>
<polygon fill="#FFFFFF" points="62.673,11.007 3.607,57.958 0,69.752 68.681,15.159 "/>
<rect x="65.96" y="0.972" transform="matrix(0.8227 0.5685 -0.5685 0.8227 16.673 -38.1745)" fill="#FFFFFF" width="7.146" height="13.338"/>
<path fill="#FFFFFF" d="M49.228,36.391c-5.193-3.59-7.962-10.685-12.2-14.467l-4.148,6.001c4.244,3.785,6.786,11.19,11.982,14.782
	c5.358,3.704,12.914,3.248,18.104,5.924l4.142-5.993C61.928,39.963,54.58,40.09,49.228,36.391z"/>
<ellipse transform="matrix(0.8226 0.5686 -0.5686 0.8226 14.3484 -41.1614)" fill="#FFFFFF" cx="73.143" cy="2.415" rx="3.573" ry="1.588"/>
<ellipse transform="matrix(0.5685 -0.8227 0.8227 0.5685 -9.4163 73.2067)" fill="#FFFFFF" cx="65.075" cy="45.579" rx="3.573" ry="1.587"/>
<path fill="#FFFFFF" d="M37.06,21.874c-0.72-0.497-2.214,0.416-3.335,2.038c-1.122,1.623-1.447,3.343-0.727,3.841
	c0.723,0.5,2.217-0.413,3.338-2.036S37.782,22.374,37.06,21.874z"/>
</svg>
