<?xml version="1.0" encoding="utf-8"?>
<!-- Generator: Adobe Illustrator 16.0.3, SVG Export Plug-In . SVG Version: 6.00 Build 0)  -->
<!DOCTYPE svg PUBLIC "-//W3C//DTD SVG 1.1//EN" "http://www.w3.org/Graphics/SVG/1.1/DTD/svg11.dtd">
<svg version="1.1" id="Layer_1" xmlns="http://www.w3.org/2000/svg" xmlns:xlink="http://www.w3.org/1999/xlink" x="0px" y="0px"
	 width="41.285px" height="36.75px" viewBox="0 0 41.285 36.75" enable-background="new 0 0 41.285 36.75" xml:space="preserve">
<g id="Layer_1_1_">
	<g id="Layer_2_2_">
	</g>
	<g id="Layer_1_2_">
		<g id="Layer_2_1_">
		</g>
		<g id="Layer_3" display="none">
			<circle display="inline" fill="#002D62" cx="17.308" cy="16.456" r="22.067"/>
		</g>
		<rect x="39.376" y="-0.111" fill="#002D62" width="1.908" height="36.75"/>
	</g>
	<g id="Layer_3_2_">
	</g>
</g>
<g id="Layer_2_3_">
	<g>
		<path fill="none" d="M21.173,25.462v-9.261c-1.336,0.965-2.714,1.876-4.115,2.734L21.173,25.462z"/>
		<path fill="#002D62" d="M6.247,29.32H4.358v4.242h8.857V29.32h-1.921v-7.182c-1.696,0.854-3.389,1.643-5.047,2.361V29.32z"/>
		<path opacity="0.1" fill="#FFFFFF" enable-background="new    " d="M11.294,22.139c0.604-0.305,1.207-0.617,1.811-0.939
			l-1.811-2.818V22.139z"/>
		<g>
			<path fill="none" d="M21.173,16.201c-1.336,0.965-2.714,1.876-4.115,2.734l4.115,6.525V16.201z"/>
			<path fill="none" d="M19.207,10.091v4.243h1.967v1.867c2.495-1.802,4.846-3.789,6.924-5.976v-0.134H19.207z"/>
			<path fill="#002D62" d="M32.759,4.161c-0.875,1.453-1.874,2.836-2.973,4.154l1.741-0.917l2.119,1.116l-0.403-2.362l1.715-1.672
				L32.759,4.161z"/>
			<path fill="#002D62" d="M21.173,25.462l-4.115-6.524c-1.303,0.797-2.625,1.551-3.953,2.262l7.942,12.365h5.172v-19.23h1.877
				v-4.109c-2.078,2.187-4.428,4.174-6.923,5.976V25.462z"/>
			<path fill="#002D62" d="M32.587,4.136l-1.06-2.149l-1.062,2.149l-2.37,0.344l1.715,1.672l-0.403,2.362l0.379-0.2
				c1.099-1.318,2.098-2.701,2.973-4.154L32.587,4.136z"/>
			<linearGradient id="SVGID_1_" gradientUnits="userSpaceOnUse" x1="33.9512" y1="10.3984" x2="25.6206" y2="-1.9126">
				<stop  offset="0" style="stop-color:#FFFFFF"/>
				<stop  offset="1" style="stop-color:#000000"/>
			</linearGradient>
			<path opacity="0.3" fill="url(#SVGID_1_)" enable-background="new    " d="M32.587,4.136l-1.06-2.149l-1.062,2.149l-2.37,0.344
				l1.715,1.672l-0.403,2.362l0.379-0.2c1.099-1.318,2.098-2.701,2.973-4.154L32.587,4.136z"/>
		</g>
		<path fill="#002D62" d="M11.48,10.091H4.389v4.243h1.858v10.167c1.659-0.72,3.351-1.507,5.047-2.362V18.38l1.811,2.818
			c1.328-0.712,2.65-1.464,3.953-2.263L11.48,10.091z"/>
		<linearGradient id="SVGID_2_" gradientUnits="userSpaceOnUse" x1="13.5415" y1="24.209" x2="5.2109" y2="11.8979">
			<stop  offset="0" style="stop-color:#FFFFFF"/>
			<stop  offset="1" style="stop-color:#000000"/>
		</linearGradient>
		<path opacity="0.3" fill="url(#SVGID_2_)" enable-background="new    " d="M11.48,10.091H4.389v4.243h1.858v10.167
			c1.659-0.72,3.351-1.507,5.047-2.362V18.38l1.811,2.818c1.328-0.712,2.65-1.464,3.953-2.263L11.48,10.091z"/>
		<path fill="#002D62" d="M19.207,10.091v4.243h1.967v1.867c2.495-1.802,4.846-3.789,6.924-5.976v-0.134H19.207z"/>
		<linearGradient id="SVGID_3_" gradientUnits="userSpaceOnUse" x1="26.0449" y1="15.748" x2="17.7144" y2="3.437">
			<stop  offset="0" style="stop-color:#FFFFFF"/>
			<stop  offset="1" style="stop-color:#000000"/>
		</linearGradient>
		<path opacity="0.3" fill="url(#SVGID_3_)" enable-background="new    " d="M19.207,10.091v4.243h1.967v1.867
			c2.495-1.802,4.846-3.789,6.924-5.976v-0.134H19.207z"/>
	</g>
</g>
</svg>
